<svg width="50" height="50" viewBox="0 0 50 50" fill="none" xmlns="http://www.w3.org/2000/svg">
<rect width="50" height="50" rx="12" fill="#5893FF"/>
<path fill-rule="evenodd" clip-rule="evenodd" d="M21.3999 16.7799C21.8527 15.5472 22.0581 14.2374 22.0047 12.9252L28.6658 12.6537C28.7549 14.8406 28.4125 17.0236 27.6579 19.0781C27.6219 19.1763 27.5849 19.2741 27.5471 19.3715C26.7926 21.3123 25.6807 23.0954 24.2683 24.6279C22.8558 26.1603 21.1691 27.4136 19.2962 28.3236C19.2022 28.3692 19.1077 28.414 19.0128 28.4579C17.0265 29.3772 14.8786 29.8962 12.6917 29.9853L12.4202 23.3242C13.7324 23.2707 15.0211 22.9593 16.2129 22.4078C17.4047 21.8562 18.4761 21.0753 19.3661 20.1097C20.2561 19.1441 20.9472 18.0126 21.3999 16.7799Z" fill="white"/>
<path fill-rule="evenodd" clip-rule="evenodd" d="M28.1057 33.4928C27.6029 34.706 27.3441 36.0063 27.3439 37.3195L20.6772 37.3185C20.6776 35.1298 21.109 32.9626 21.9469 30.9407C21.9869 30.844 22.0278 30.7478 22.0696 30.6521C22.9028 28.7438 24.0867 27.0076 25.5606 25.5341C27.0345 24.0607 28.771 22.8774 30.6795 22.0448C30.7753 22.003 30.8715 21.9621 30.9682 21.9221C32.9904 21.0848 35.1577 20.654 37.3464 20.6544L37.3454 27.321C36.0322 27.3208 34.7318 27.5793 33.5185 28.0817C32.3051 28.584 31.2026 29.3205 30.2739 30.2489C29.3452 31.1774 28.6084 32.2796 28.1057 33.4928Z" fill="white"/>
</svg>
